<svg version="1.2" xmlns="http://www.w3.org/2000/svg" viewBox="0 0 48 48" width="48" height="48"><style>.a{fill:none;stroke:#000;stroke-linecap:round;stroke-linejoin:round}</style><path fill-rule="evenodd" class="a" d="m33.6 13h-19.4c-0.7 0-1.2 0.5-1.2 1.2v19.4c0 0.6 0.5 1.1 1.2 1.1h19.4c0.6 0 1.2-0.5 1.2-1.1v-19.4c0-0.7-0.6-1.2-1.2-1.2z"/><path fill-rule="evenodd" class="a" d="m31.4 16.5v3h-9.7v-3z"/><path fill-rule="evenodd" class="a" d="m31.4 22.4v2.9h-9.7v-2.9z"/><path fill-rule="evenodd" class="a" d="m31.4 28.3v2.9h-9.7v-2.9z"/><path class="a" d="m19.2 16.5v3h-2.9v-3z"/><path class="a" d="m19.2 22.4v2.9h-2.9v-2.9z"/><path class="a" d="m19.2 28.3v2.9h-2.9v-2.9z"/></svg>